<?xml version="1.0" encoding="UTF-8"?>
<svg version="1.1" xmlns="http://www.w3.org/2000/svg" width="700" height="700">
<path d="M0 0 C1.21236328 -0.05607422 1.21236328 -0.05607422 2.44921875 -0.11328125 C12.26811138 1.34682693 18.51416545 8.94286208 25.14453125 15.6484375 C26.26868594 16.77243697 27.39350954 17.8957678 28.51896667 19.01846313 C30.86597686 21.36409464 33.2059105 23.71649507 35.54077148 26.07421875 C38.52582189 29.08770112 41.52623666 32.08531054 44.53188038 35.07823753 C46.85300165 37.39238822 49.16667052 39.71387479 51.4780941 42.03770828 C52.58158071 43.14569249 53.68713812 44.25161848 54.79483986 45.35538864 C56.34313145 46.90075322 57.88131892 48.45553226 59.41723633 50.01318359 C60.7300634 51.33411514 60.7300634 51.33411514 62.06941223 52.68173218 C66.05212552 57.35279058 67.76295615 61.50740605 67.875 67.625 C67.93880859 69.19701172 67.93880859 69.19701172 68.00390625 70.80078125 C66.05511862 80.69886077 57.20329361 87.85972048 50.28857422 94.67260742 C48.54329159 96.39394488 46.81208265 98.12860206 45.08203125 99.86523438 C43.97735755 100.96434133 42.87191709 102.06267829 41.765625 103.16015625 C40.98907562 103.93807274 40.98907562 103.93807274 40.19683838 104.73170471 C36.54364778 108.3125 36.54364778 108.3125 34.3125 108.3125 C33.9825 109.3025 33.6525 110.2925 33.3125 111.3125 C32.6525 111.3125 31.9925 111.3125 31.3125 111.3125 C30.9825 112.3025 30.6525 113.2925 30.3125 114.3125 C28.5308159 116.02900053 26.63069997 117.54613599 24.7109375 119.10546875 C22.79492014 120.86857918 21.23624078 122.55255453 19.57463074 124.5342865 C13.64447653 131.34796982 7.12281573 137.60695052 0.7199707 143.97094727 C-0.76247684 145.44819537 -2.24467855 146.92569021 -3.72665405 148.40341187 C-6.90641621 151.57327001 -10.08763638 154.74165499 -13.2699337 157.90896797 C-18.30335224 162.91924223 -23.33182054 167.93446478 -28.35932922 172.95066833 C-42.65199763 187.20996679 -56.94884911 201.46505241 -71.25610352 215.7097168 C-79.16691528 223.58600395 -87.07235707 231.46763942 -94.97186214 239.35526699 C-99.96664174 244.34195361 -104.96791968 249.32199984 -109.97406995 254.29726994 C-113.08635446 257.39353958 -116.19231355 260.49609391 -119.29650497 263.60047531 C-120.73542939 265.03697983 -122.17692897 266.47091023 -123.62119865 267.90204048 C-125.59483749 269.85847085 -127.55895843 271.82399813 -129.52104187 273.79200745 C-130.09214886 274.35369379 -130.66325585 274.91538014 -131.25166911 275.49408728 C-135.51903881 279.80461448 -139.19781198 284.25484171 -140.18359375 290.41015625 C-140.16425781 291.38855469 -140.14492187 292.36695313 -140.125 293.375 C-140.12371094 294.35597656 -140.12242187 295.33695312 -140.12109375 296.34765625 C-138.92494229 304.52674598 -133.04511387 309.40710791 -127.453125 314.98046875 C-126.08604401 316.35541252 -126.08604401 316.35541252 -124.69134521 317.75813293 C-122.76634202 319.6920412 -120.8358062 321.62020961 -118.90136719 323.54467773 C-116.43382716 326.00072996 -113.98249977 328.4722774 -111.53534317 330.94861889 C-109.18398818 333.32282352 -106.81781169 335.68204202 -104.453125 338.04296875 C-103.14338715 339.36955757 -103.14338715 339.36955757 -101.80718994 340.72294617 C-96.34511568 346.12333519 -91.36437203 350.73466092 -83.25 350.75 C-82.57066406 350.76933594 -81.89132812 350.78867187 -81.19140625 350.80859375 C-73.04456617 349.19447723 -67.78904234 343.97564341 -62.18652344 338.265625 C-61.36862209 337.44831909 -60.55072075 336.63101318 -59.70803452 335.78894043 C-57.45390434 333.53252208 -55.20896413 331.26741092 -52.96764946 328.99827576 C-50.54280336 326.54782683 -48.10623617 324.10908154 -45.67102051 321.66894531 C-41.45669588 317.44309678 -37.24953951 313.21022071 -33.04699707 308.97265625 C-26.96420915 302.83955327 -20.86840504 296.71951828 -14.76901007 290.60293579 C-4.86369858 280.66938038 5.0341085 270.72838597 14.92578125 260.78125 C15.51728171 260.18643829 16.10878217 259.59162659 16.71820688 258.97879028 C20.9165044 254.75689219 25.11453341 250.53472715 29.3125 246.3125 C34.10788771 241.48939915 38.90339686 236.66641913 43.69921875 231.84375 C44.28999285 231.24966339 44.88076695 230.65557678 45.4894433 230.04348755 C55.34535523 220.13280372 65.20914343 210.22999503 75.07856369 200.33276367 C81.16126203 194.2321599 87.23675573 188.12454632 93.30308437 182.00766373 C97.46031606 177.81668916 101.62463068 173.63284229 105.7945528 169.45449448 C108.1987249 167.04495134 110.59946919 164.63223244 112.99143982 162.21057129 C115.58896243 159.58417744 118.19858093 156.97041527 120.81152344 154.359375 C121.56095341 153.59556519 122.31038338 152.83175537 123.08252335 152.0447998 C128.06923692 147.09682435 132.9180122 143.18117782 140 141.78125 C140.763125 141.7915625 141.52625 141.801875 142.3125 141.8125 C143.4571875 141.79703125 143.4571875 141.79703125 144.625 141.78125 C151.98055263 143.23525459 157.18820052 147.60088949 162.3285675 152.80044556 C162.98665458 153.45017598 163.64474166 154.09990639 164.32277077 154.76932561 C166.51159919 156.93529008 168.68599281 159.11517091 170.8605957 161.29541016 C172.43244085 162.85691729 174.00510959 164.41759575 175.57853699 165.97750854 C179.8398733 170.20783922 184.08828167 174.450928 188.33351159 178.69741488 C191.8814297 182.24450168 195.43503809 185.78586152 198.98846978 189.32742345 C207.85096149 198.160993 216.70044044 207.00749256 225.54449698 215.85950808 C233.21579966 223.53679347 240.90513824 231.19572363 248.60299096 238.84637935 C256.51873609 246.71397108 264.42102602 254.59490131 272.31032437 262.48902357 C276.7351039 266.91612454 281.16503261 271.3377463 285.60848427 275.74611282 C289.78641994 279.89208684 293.94712543 284.05461463 298.09529305 288.23036575 C299.61824245 289.75776876 301.14715989 291.27924841 302.68248367 292.79421234 C304.78207647 294.8678421 306.85879917 296.96204396 308.93135071 299.06265259 C309.53970695 299.65334742 310.1480632 300.24404226 310.77485448 300.85263693 C315.17508466 305.38213679 317.31212894 310.05841977 318.3125 316.3125 C317.70870405 329.52716534 307.20864058 337.70790288 298.40077209 346.48492432 C297.17922077 347.70949914 295.9581034 348.93450699 294.73738092 350.15990806 C291.394072 353.51347955 288.04457864 356.86081296 284.69399464 360.20711374 C281.07685787 363.82178023 277.46547307 367.44218588 273.85331726 371.06182861 C266.7814651 378.14642009 259.70415399 385.22553363 252.62475879 392.30258682 C246.87155292 398.05400899 241.12011743 403.80719579 235.36993217 409.56163788 C234.55125925 410.38090599 233.73258632 411.20017411 232.88910512 412.04426853 C231.22596126 413.70862415 229.56281859 415.37298096 227.89967709 417.03733894 C212.3090819 432.63880613 196.71197726 448.23375307 181.1128962 463.82673499 C166.83960674 478.09485218 152.57455413 492.37117213 138.31335575 506.65137365 C123.66822269 521.31587179 109.0175511 535.97481526 94.36085218 550.62775397 C86.13289051 558.85380202 77.90715274 567.08204494 69.68721199 575.3161087 C62.69177151 582.32344676 55.69112526 589.32553211 48.68367226 596.32085827 C45.10841981 599.89021148 41.53563005 603.46194145 37.96931076 607.04022217 C34.70468013 610.31567507 31.43320571 613.58412612 28.1561374 616.84713385 C26.97188646 618.02872786 25.79016167 619.21286027 24.61123777 620.39976934 C23.00760114 622.0135116 21.39497559 623.61771544 19.77981663 625.21991348 C18.88654936 626.11323576 17.9932821 627.00655804 17.07294613 627.92695069 C11.85267557 632.43825511 6.41617476 635.56104043 -0.6875 635.3125 C-10.75246327 634.2139464 -16.66177784 627.31376205 -23.37290955 620.49578857 C-24.62773564 619.24688406 -25.88408998 617.9995135 -27.1418305 616.75354409 C-30.58397758 613.33476178 -34.00399271 609.894567 -37.42070496 606.45039058 C-41.11285477 602.73621065 -44.82516852 599.04227956 -48.53497314 595.3457489 C-55.79504422 588.10523678 -63.03627039 580.8461558 -70.27121388 573.58054462 C-78.69648362 565.12086759 -87.13982515 556.67932447 -95.58385605 548.23838094 C-110.64798893 533.17843815 -125.69497243 518.10147558 -140.73266602 503.01513672 C-155.32676171 488.37385032 -169.93376972 473.7456057 -184.55493164 459.13134766 C-203.01704013 440.6779 -221.46767553 422.21305851 -239.90884299 403.73868392 C-245.78991424 397.84769825 -251.67507041 391.96081229 -257.56159782 386.07527924 C-264.73303822 378.90459593 -271.89697846 371.72651456 -279.05157458 364.53902331 C-282.7026607 360.87145195 -286.35684049 357.20711357 -290.01971626 353.5513134 C-293.37186546 350.20542672 -296.71464093 346.85046413 -300.0501327 343.48797384 C-301.25905133 342.27249812 -302.47135265 341.06037567 -303.6873263 339.85195789 C-305.33901456 338.20951219 -306.97792344 336.55527194 -308.61422634 334.89751816 C-309.52810853 333.98136034 -310.44199073 333.06520252 -311.38356632 332.12128234 C-314.93213951 327.79512929 -317.11078906 323.13328756 -317.1875 317.4375 C-317.2184375 316.67695313 -317.249375 315.91640625 -317.28125 315.1328125 C-315.13529597 304.93953088 -306.90894325 297.97333969 -299.81336975 290.94389343 C-298.58328976 289.71063378 -297.35408614 288.47649951 -296.12568086 287.24157172 C-292.75983123 283.86293471 -289.38167566 280.49684494 -286.00131524 277.13273466 C-282.3532671 273.49787167 -278.71679209 269.85146184 -275.07884216 266.20649719 C-267.95567694 259.07325981 -260.82189404 251.95073305 -253.6844402 244.83179583 C-245.37314176 236.54128404 -237.07232639 228.24030916 -228.77190214 219.93891261 C-213.96300564 205.12901531 -199.14447445 190.32879593 -184.32055664 175.53393555 C-169.93471577 161.17627882 -155.55590753 146.8116275 -141.18481445 132.43920898 C-139.85668648 131.11096115 -139.85668648 131.11096115 -138.50172765 129.75588002 C-137.61784226 128.87191392 -136.73395687 127.98794782 -135.82328707 127.07719487 C-119.46201579 110.71454409 -103.09417407 94.35847991 -86.72326146 78.0054757 C-80.93314781 72.22139542 -75.14498942 66.43536284 -69.35743904 60.64871788 C-62.30649668 53.59913948 -55.25178721 46.55335543 -48.19234449 39.51228895 C-44.59018021 35.91936083 -40.98960608 32.32487742 -37.39331436 28.7260704 C-34.10189256 25.43245818 -30.80589444 22.14349937 -27.50616138 18.85821448 C-26.3126881 17.66836674 -25.12089223 16.47683364 -23.93094302 15.28346153 C-22.3137856 13.66216776 -20.69061233 12.04714176 -19.06579685 10.43352795 C-18.16553227 9.53467221 -17.26526769 8.63581648 -16.33772236 7.7097227 C-11.29157782 3.14530108 -6.87126838 0.20495149 0 0 Z M184.3916626 244.85238647 C183.24042975 245.99659937 183.24042975 245.99659937 182.06593966 247.16392767 C179.50325889 249.71466921 176.9514034 252.27596751 174.39941406 254.83740234 C172.56152918 256.67122111 170.72300691 258.50440128 168.88389587 260.33699036 C164.41302898 264.79453829 159.95028495 269.26013331 155.49042901 273.72869514 C151.86531588 277.36059079 148.23727624 280.98953872 144.60713959 284.61641312 C144.08996163 285.13313137 143.57278368 285.64984963 143.03993367 286.18222601 C141.98920929 287.23199119 140.9384782 288.28174964 139.88774046 289.33150144 C130.04261039 299.16808322 120.20668553 309.01382826 110.37389764 318.86274536 C101.93952277 327.31052688 93.49730776 335.75040638 85.04931641 344.18457031 C75.23344878 353.98437908 65.4224717 363.78904165 55.61923575 373.60148776 C54.5736959 374.64798323 53.52814979 375.69447246 52.48259735 376.74095535 C51.96819578 377.25581975 51.45379421 377.77068415 50.92380472 378.30115049 C47.30109015 381.92645373 43.67490939 385.54826743 40.04737091 389.16874313 C35.16474256 394.04207357 30.29013803 398.92330897 25.42083931 403.8099575 C23.63154726 405.60321988 21.83969073 407.39392762 20.0451107 409.18189812 C17.59820965 411.62061583 15.16071434 414.06836303 12.72540283 416.51864624 C12.01130886 417.22604804 11.29721489 417.93344985 10.56148171 418.66228807 C5.09071225 424.19859474 1.58046121 429.27366373 1.3125 437.3125 C2.66656023 444.91153779 5.58629514 449.60781256 11.04370117 454.91772461 C11.72379242 455.60686951 12.40388367 456.2960144 13.10458374 457.00604248 C15.33797887 459.25990685 17.59555101 461.48759897 19.85546875 463.71484375 C21.42502264 465.28403354 22.99338933 466.85441162 24.56062317 468.42591858 C27.84075605 471.7073429 31.13263977 474.97634418 34.43383789 478.23657227 C38.65642004 482.40804195 42.85179313 486.60566549 47.03913403 490.81247616 C50.271706 494.05536217 53.51654507 497.28574013 56.76537514 500.51233101 C58.31683863 502.05545348 59.86490799 503.60199647 61.40944481 505.15205193 C63.57237234 507.3182746 65.7508689 509.46753441 67.93432617 511.61303711 C68.87996681 512.56914635 68.87996681 512.56914635 69.8447113 513.54457092 C74.91324214 518.4705488 79.59402987 520.76161554 86.6875 521.8125 C95.74054287 520.56380443 102.2989113 515.06058805 108.51144409 508.73501587 C109.27262326 507.98022552 110.03380244 507.22543517 110.81804764 506.44777238 C113.34625042 503.9347374 115.85630759 501.404353 118.36669922 498.87353516 C120.18327165 497.06046627 122.00092213 495.24847699 123.81956482 493.43748474 C128.23227965 489.03924525 132.63157598 484.62781887 137.02631287 480.21162345 C142.14944097 475.06440622 147.28548668 469.93015878 152.42196871 464.79627351 C161.58761877 455.63430791 170.74098606 446.46016823 179.88769531 437.27929688 C188.75527034 428.37861481 197.63226824 419.48746962 206.51953125 410.60644531 C216.20955849 400.92318691 225.89493868 391.23532912 235.57175267 381.53886449 C236.08373429 381.02584338 236.59571592 380.51282227 237.12321214 379.98425507 C238.151364 378.95401239 239.17950577 377.92375964 240.20763733 376.8934967 C243.78066626 373.31358285 247.35678939 369.73677793 250.93398666 366.16102982 C255.74960121 361.34700786 260.55687435 356.52479985 265.35873604 351.69705391 C267.12182386 349.92680545 268.88745659 348.15908741 270.6558094 346.39409828 C273.06937369 343.98424992 275.47350442 341.56536496 277.87545776 339.14395142 C278.92748707 338.099914 278.92748707 338.099914 280.0007695 337.03478491 C285.63599027 331.32058834 289.8569282 325.82147079 290.40234375 317.5703125 C289.86772451 304.13509854 274.84192863 293.66346444 266.05859375 284.85546875 C265.37745073 284.17149836 264.69630772 283.48752796 263.994524 282.78283119 C260.39821448 279.17161545 256.79910501 275.56321928 253.19750977 271.95727539 C249.48644024 268.24069711 245.78475841 264.5149122 242.08514309 260.78693676 C239.22740048 257.91056409 236.36296573 255.04092747 233.49666023 252.17308998 C232.12866984 250.80207939 230.76317319 249.42857572 229.40026665 248.05251122 C227.49579262 246.13095034 225.58204281 244.2191126 223.66577148 242.30932617 C222.83098015 241.46071266 222.83098015 241.46071266 221.97932434 240.59495544 C217.07012723 235.73751685 212.47712232 232.88433262 205.375 232.875 C204.39660156 232.85566406 203.41820312 232.83632813 202.41015625 232.81640625 C194.71461014 234.04885815 189.65294336 239.54117547 184.3916626 244.85238647 Z " fill="#E88223" transform="translate(348.6875,31.6875)"/>
<path d="M0 0 C0.99 0.33 1.98 0.66 3 1 C2.27938452 1.6503696 1.55876904 2.3007392 0.81631672 2.97081697 C-6.84102706 9.91560171 -14.23832502 17.08266559 -21.55300903 24.38565063 C-22.77031284 25.5974914 -23.98781731 26.80913062 -25.20550239 28.02058828 C-28.51739838 31.31680964 -31.82627211 34.61604963 -35.13456535 37.9158864 C-37.98025677 40.75351269 -40.82774905 43.58932853 -43.67524131 46.42514755 C-53.85380437 56.56206718 -64.02526542 66.70610009 -74.1953125 76.8515625 C-74.99823626 77.65251136 -75.80116002 78.45346022 -76.62841481 79.27868026 C-92.58577698 95.19688784 -108.5403895 111.11784918 -124.48932076 127.04450417 C-127.98567934 130.5358941 -131.48207581 134.02724609 -134.97851562 137.51855469 C-135.84745511 138.3862235 -136.7163946 139.25389232 -137.61166559 140.14785413 C-151.71821109 154.23299512 -165.83852443 168.3042525 -179.96430506 182.37009998 C-194.48029977 196.82501322 -208.98307898 211.29308202 -223.47321117 225.77392137 C-231.60421547 233.89901322 -239.74105106 242.01807648 -247.89291763 250.12224197 C-254.82665375 257.01543893 -261.74848645 263.92030969 -268.65490444 270.8408816 C-272.17851034 274.37096471 -275.70757654 277.89509797 -279.25209236 281.40419579 C-282.49650913 284.61645095 -285.72435924 287.84443666 -288.93978415 291.08570461 C-290.10561072 292.25518458 -291.27738719 293.41876957 -292.4556153 294.57575424 C-299.81787747 301.81320268 -303.52472336 306.53815675 -304.1953125 317.06640625 C-304.17210937 317.89011719 -304.14890625 318.71382813 -304.125 319.5625 C-304.10695313 320.40941406 -304.08890625 321.25632812 -304.0703125 322.12890625 C-304.04710937 322.74636719 -304.02390625 323.36382812 -304 324 C-303.34 324 -302.68 324 -302 324 C-302 324.99 -302 325.98 -302 327 C-301.34 327 -300.68 327 -300 327 C-298.69086164 328.32716531 -298.69086164 328.32716531 -297.11708736 330.24829388 C-292.09573665 336.14536943 -286.598018 341.55389302 -281.12660217 347.02729797 C-279.92161774 348.23630388 -278.71684258 349.44551838 -277.51225752 350.65492219 C-274.21650822 353.9625645 -270.91766796 357.26710857 -267.61826003 360.57110083 C-264.05478029 364.14056365 -260.49411439 367.71283172 -256.93299866 371.28465271 C-248.3446205 379.89748094 -239.75135782 388.50542748 -231.15721169 397.11249974 C-228.72967885 399.54374791 -226.30227493 401.97512471 -223.87491679 404.40654731 C-208.79372352 419.51296463 -193.71094174 434.61779393 -178.62336063 449.71783161 C-175.13406013 453.21006163 -171.64477573 456.70230774 -168.15551758 460.19458008 C-167.28831506 461.06252865 -166.42111254 461.93047722 -165.52763116 462.82472726 C-151.46051535 476.90451359 -137.40372173 490.99455919 -123.35109467 505.08880482 C-108.91860326 519.56368904 -94.47672724 534.02915637 -80.02563852 548.48547429 C-71.91379247 556.60073585 -63.80617467 564.72012702 -55.70909309 572.85012245 C-48.8186744 579.76850519 -41.91985879 586.67837212 -35.0098396 593.57718048 C-31.48452284 597.09730282 -27.96340125 600.62137114 -24.45305634 604.15642929 C-21.23954449 607.39237578 -18.01471105 610.61657162 -14.78047781 613.83180394 C-13.61265046 614.99682339 -12.44903772 616.1660862 -11.29012287 617.33997182 C-4.37380274 624.34014106 1.27305533 629.77437994 11.5 630.6875 C13.2325 630.8421875 13.2325 630.8421875 15 631 C15 630.34 15 629.68 15 629 C16.65 629 18.3 629 20 629 C20 628.34 20 627.68 20 627 C20.99 627.33 21.98 627.66 23 628 C17.85241323 631.98937975 13.38313141 633.47704865 6.84343237 632.76528478 C-2.09814667 630.74692574 -7.49822563 624.46897297 -13.68540955 618.18328857 C-14.94023564 616.93438406 -16.19658998 615.6870135 -17.4543305 614.44104409 C-20.89647758 611.02226178 -24.31649271 607.582067 -27.73320496 604.13789058 C-31.42535477 600.42371065 -35.13766852 596.72977956 -38.84747314 593.0332489 C-46.10754422 585.79273678 -53.34877039 578.5336558 -60.58371388 571.26804462 C-69.00898362 562.80836759 -77.45232515 554.36682447 -85.89635605 545.92588094 C-100.96048893 530.86593815 -116.00747243 515.78897558 -131.04516602 500.70263672 C-145.63926171 486.06135032 -160.24626972 471.4331057 -174.86743164 456.81884766 C-193.32954013 438.3654 -211.78017553 419.90055851 -230.22134299 401.42618392 C-236.10241424 395.53519825 -241.98757041 389.64831229 -247.87409782 383.76277924 C-255.04553822 376.59209593 -262.20947846 369.41401456 -269.36407458 362.22652331 C-273.0151607 358.55895195 -276.66934049 354.89461357 -280.33221626 351.2388134 C-283.68436546 347.89292672 -287.02714093 344.53796413 -290.3626327 341.17547384 C-291.57155133 339.95999812 -292.78385265 338.74787567 -293.9998263 337.53945789 C-295.65151456 335.89701219 -297.29042344 334.24277194 -298.92672634 332.58501816 C-299.84060853 331.66886034 -300.75449073 330.75270252 -301.69606632 329.80878234 C-305.24463951 325.48262929 -307.42328906 320.82078756 -307.5 315.125 C-307.5309375 314.36445313 -307.561875 313.60390625 -307.59375 312.8203125 C-305.4466121 302.62140747 -297.21359678 295.65551905 -290.1124115 288.62466431 C-288.8809043 287.39069427 -287.65027534 286.15584724 -286.42044646 284.92020452 C-283.05073096 281.53963648 -279.66871241 278.17161967 -276.28449714 274.80557561 C-272.63238167 271.16870626 -268.99185328 267.52026991 -265.34986877 263.8732605 C-258.21926319 256.73643471 -251.07811103 249.61025259 -243.93341678 242.48753412 C-235.61528725 234.19410694 -227.30806633 225.88978888 -219.00138087 217.58490197 C-204.18333514 202.77073132 -189.35601901 187.9658748 -174.52319336 173.16650391 C-160.12496968 158.80072833 -145.73236395 144.42935789 -131.34643555 130.05126953 C-130.45988609 129.16520557 -129.57333664 128.27914161 -128.65992206 127.36622722 C-125.09655624 123.80479007 -121.53319869 120.24334464 -117.96985954 116.68188081 C-104.26460805 102.98415811 -90.5553092 89.29048657 -76.84515418 75.59767205 C-72.70180682 71.45956241 -68.55861185 67.32130046 -64.41578746 63.18266726 C-55.70560525 54.48140073 -46.99400174 45.78156656 -38.27784174 37.08628757 C-34.67314598 33.49019539 -31.0692145 29.89334658 -27.46740341 26.29436493 C-24.17271801 23.00234361 -20.87573523 19.7126418 -17.57686359 16.42481558 C-16.38160567 15.23276715 -15.1871866 14.03987691 -13.99367665 12.84607835 C-12.37546401 11.22774072 -10.75423957 9.61248192 -9.13220119 7.99798012 C-8.23117717 7.09874467 -7.33015315 6.19950921 -6.40182537 5.2730242 C-2.28573809 1.37766773 -2.28573809 1.37766773 0 0 Z " fill="#DC8839" transform="translate(339,34)"/>
<path d="M0 0 C0 3.81918093 -1.44470101 4.79806309 -4.0381844 7.41144204 C-4.63855291 8.00102566 -5.23892142 8.59060929 -5.85748291 9.19805908 C-6.80267544 10.14392148 -6.80267544 10.14392148 -7.76696277 11.1088922 C-9.89261637 13.23245267 -12.02881698 15.345083 -14.16503906 17.45800781 C-15.68628661 18.9735012 -17.20685499 20.4896766 -18.72679138 22.00648499 C-22.00797513 25.27816505 -25.29376806 28.54512083 -28.58310699 31.80860138 C-33.78432994 36.96935402 -38.97417827 42.14144254 -44.16229248 47.31536865 C-56.11934984 59.23623597 -68.09129787 71.1421129 -80.06343842 83.04782867 C-91.02295627 93.94681824 -101.9793081 104.84893977 -112.92353797 115.76328349 C-118.08064664 120.9054438 -123.24498432 126.04019809 -128.41496229 131.16941786 C-131.63313631 134.36519666 -134.84506765 137.56719384 -138.05534554 140.77090263 C-139.54424028 142.25418558 -141.03572409 143.73487494 -142.52998924 145.21274757 C-144.57186874 147.23293166 -146.60423899 149.26223801 -148.63458252 151.29400635 C-149.52175095 152.16499745 -149.52175095 152.16499745 -150.42684197 153.05358434 C-154.75052002 157.40979942 -158.49755321 161.86267474 -159.49609375 168.09765625 C-159.47675781 169.07605469 -159.45742187 170.05445313 -159.4375 171.0625 C-159.43621094 172.04347656 -159.43492187 173.02445313 -159.43359375 174.03515625 C-158.23744229 182.21424598 -152.35761387 187.09460791 -146.765625 192.66796875 C-145.85423767 193.58459793 -144.94285034 194.50122711 -144.00384521 195.44563293 C-142.07884202 197.3795412 -140.1483062 199.30770961 -138.21386719 201.23217773 C-135.74632716 203.68822996 -133.29499977 206.1597774 -130.84784317 208.63611889 C-128.49648818 211.01032352 -126.13031169 213.36954202 -123.765625 215.73046875 C-122.89246643 216.6148613 -122.01930786 217.49925385 -121.11968994 218.41044617 C-115.65761568 223.81083519 -110.67687203 228.42216092 -102.5625 228.4375 C-101.88316406 228.45683594 -101.20382812 228.47617187 -100.50390625 228.49609375 C-92.35378935 226.881328 -87.08912643 221.65385674 -81.47883606 215.94639587 C-80.65881802 215.1283844 -79.83879998 214.31037293 -78.9939329 213.46757323 C-76.73401916 211.2092288 -74.48327676 208.94219371 -72.23617232 206.67111671 C-69.8052028 204.21867555 -67.3625634 201.77790566 -64.92131042 199.33570862 C-60.69703315 195.10671649 -56.48002152 190.87059106 -52.26780128 186.62959099 C-46.17327482 180.49362264 -40.06670369 174.36975532 -33.95697816 168.24892516 C-24.03784622 158.31129889 -14.12694621 148.36550682 -4.22192383 138.41381836 C-3.62963644 137.81874434 -3.03734905 137.22367033 -2.42711356 136.61056376 C-1.83407861 136.01473775 -1.24104366 135.41891175 -0.63003796 134.80503041 C7.78223013 126.35320697 16.19644951 117.9033326 24.61303711 109.45581055 C25.20550742 108.86115853 25.79797773 108.26650652 26.40840169 107.65383475 C36.28497635 97.74122206 46.16561091 87.83266257 56.04832917 77.92617518 C62.14157853 71.81774563 68.23063899 65.70519306 74.31433377 59.58724726 C78.48059597 55.3978568 82.6502376 51.2118511 86.82255694 47.0284931 C89.22984525 44.61453999 91.63539989 42.19891973 94.03655624 39.77886581 C96.63972485 37.15684453 99.24895997 34.54101281 101.85978699 31.92662048 C102.99703973 30.7765365 102.99703973 30.7765365 104.15726727 29.6032185 C110.87028081 22.90470151 110.87028081 22.90470151 115 21 C117.3125 21.3125 117.3125 21.3125 119 22 C118.40832031 22.37511719 117.81664062 22.75023437 117.20703125 23.13671875 C111.81545179 26.60702193 111.81545179 26.60702193 107.0625 30.875 C106.381875 31.57625 105.70125 32.2775 105 33 C104.34 33 103.68 33 103 33 C102.62875 33.85851562 102.62875 33.85851562 102.25 34.734375 C100.80683801 37.35010611 99.11783778 39.14773456 97 41.25 C96.29875 41.95640625 95.5975 42.6628125 94.875 43.390625 C93 45 93 45 91 45 C90.79375 45.53109375 90.5875 46.0621875 90.375 46.609375 C88.42038808 50.00773436 85.77876283 52.51055928 83 55.25 C82.4534375 55.80429688 81.906875 56.35859375 81.34375 56.9296875 C77.2533867 61 77.2533867 61 75 61 C74.79375 61.53109375 74.5875 62.0621875 74.375 62.609375 C72.42038808 66.00773436 69.77876283 68.51055928 67 71.25 C66.4534375 71.80429688 65.906875 72.35859375 65.34375 72.9296875 C61.2533867 77 61.2533867 77 59 77 C58.79375 77.53625 58.5875 78.0725 58.375 78.625 C56.46749574 81.91978009 53.95180616 84.59363628 51 87 C50.34 87 49.68 87 49 87 C48.7525 87.61875 48.505 88.2375 48.25 88.875 C46.76259631 91.40358627 45.56321991 91.71839004 43 93 C42.67 93.66 42.34 94.32 42 95 C40.73577236 97.52845528 39.47154472 97.76422764 37 99 C36.7525 99.55171875 36.505 100.1034375 36.25 100.671875 C34.41174935 104.09561683 31.75128876 106.53764457 29 109.25 C28.4534375 109.80429687 27.906875 110.35859375 27.34375 110.9296875 C23.2533867 115 23.2533867 115 21 115 C20.79375 115.53109375 20.5875 116.0621875 20.375 116.609375 C18.42038808 120.00773436 15.77876283 122.51055928 13 125.25 C12.4534375 125.80429687 11.906875 126.35859375 11.34375 126.9296875 C7.2533867 131 7.2533867 131 5 131 C4.79375 131.53109375 4.5875 132.0621875 4.375 132.609375 C2.42038808 136.00773436 -0.22123717 138.51055928 -3 141.25 C-3.5465625 141.80429687 -4.093125 142.35859375 -4.65625 142.9296875 C-8.7466133 147 -8.7466133 147 -11 147 C-11.20625 147.53109375 -11.4125 148.0621875 -11.625 148.609375 C-13.57961192 152.00773436 -16.22123717 154.51055928 -19 157.25 C-19.5465625 157.80429687 -20.093125 158.35859375 -20.65625 158.9296875 C-24.7466133 163 -24.7466133 163 -27 163 C-27.20625 163.53109375 -27.4125 164.0621875 -27.625 164.609375 C-29.57961192 168.00773436 -32.22123717 170.51055928 -35 173.25 C-35.5465625 173.80429687 -36.093125 174.35859375 -36.65625 174.9296875 C-40.7466133 179 -40.7466133 179 -43 179 C-43.20625 179.53109375 -43.4125 180.0621875 -43.625 180.609375 C-45.57961192 184.00773436 -48.22123717 186.51055928 -51 189.25 C-51.5465625 189.80429687 -52.093125 190.35859375 -52.65625 190.9296875 C-56.7466133 195 -56.7466133 195 -59 195 C-59.20625 195.53109375 -59.4125 196.0621875 -59.625 196.609375 C-61.57961192 200.00773436 -64.22123717 202.51055928 -67 205.25 C-67.5465625 205.80429687 -68.093125 206.35859375 -68.65625 206.9296875 C-72.7466133 211 -72.7466133 211 -75 211 C-75.2475 211.5775 -75.495 212.155 -75.75 212.75 C-77.18299988 215.32939979 -78.78424676 217.06121592 -81 219 C-81.66 219 -82.32 219 -83 219 C-83.2475 219.61875 -83.495 220.2375 -83.75 220.875 C-85.20628639 223.35068687 -86.37812506 223.95125002 -89 225 C-89 225.66 -89 226.32 -89 227 C-89.99 227 -90.98 227 -92 227 C-92 227.66 -92 228.32 -92 229 C-95.2827261 230.94156484 -97.89073971 231.35312755 -101.6875 231.4375 C-102.66074219 231.47746094 -103.63398438 231.51742187 -104.63671875 231.55859375 C-113.84343799 230.02948707 -120.19062346 223.38123222 -126.48828125 216.97265625 C-127.35390182 216.10611923 -128.2195224 215.23958221 -129.1113739 214.3467865 C-130.9287048 212.52344396 -132.74120348 210.69527359 -134.54907227 208.86254883 C-137.3109755 206.0640447 -140.08863747 203.28196551 -142.86914062 200.50195312 C-144.63896853 198.72229613 -146.40788069 196.94172788 -148.17578125 195.16015625 C-149.00185379 194.33185806 -149.82792633 193.50355988 -150.67903137 192.65016174 C-161.82850704 181.31628175 -161.82850704 181.31628175 -162.125 172.125 C-162.0861856 168.67051854 -161.67867307 165.39336534 -161 162 C-160.34 162 -159.68 162 -159 162 C-159 161.01 -159 160.02 -159 159 C-158.34 159 -157.68 159 -157 159 C-156.79632624 158.47128674 -156.59265247 157.94257347 -156.38280678 157.39783859 C-154.40749015 153.9725658 -151.66362465 151.39591674 -148.87509155 148.63458252 C-148.24043209 147.9982142 -147.60577262 147.36184589 -146.95188105 146.70619369 C-144.82079191 144.57180631 -142.68262564 142.44465283 -140.54443359 140.31738281 C-139.01663491 138.79014817 -137.48927628 137.2624732 -135.96232605 135.73439026 C-131.81208519 131.5835746 -127.65569829 127.43896255 -123.4982028 123.29541492 C-119.15576799 118.96546636 -114.8189807 114.62986902 -110.4815979 110.29486084 C-102.26561814 102.08510203 -94.04455254 93.88045561 -85.82165968 85.6776216 C-76.46114404 76.33944579 -67.10629379 66.99560332 -57.75192142 57.6512742 C-38.50759014 38.42785887 -19.25613465 19.21159135 0 0 Z " fill="#DE8634" transform="translate(368,154)"/>
<path d="M0 0 C1.13566406 -0.07476562 2.27132812 -0.14953125 3.44140625 -0.2265625 C14.86783166 1.06022217 25.77051723 15.53857748 33.40625 23.23046875 C34.81772565 24.64246417 36.22972246 26.05393878 37.64221191 27.46492004 C40.58165605 30.40445331 43.51591795 33.34902997 46.44628906 36.29760742 C50.19801823 40.07213693 53.96084558 43.83536798 57.72734833 47.59514904 C60.63594827 50.50040707 63.5395373 53.41063048 66.44154358 56.32247353 C67.82767319 57.71244292 69.21514247 59.10107772 70.60398865 60.48833275 C72.53980508 62.42377775 74.46898775 64.36559998 76.39648438 66.30932617 C76.96686432 66.8772287 77.53724426 67.44513123 78.12490845 68.03024292 C84.26435145 74.25226433 87.54116588 80.26514739 87.8984375 89.05078125 C86.47641667 96.99240608 81.39585283 102.24066258 75.87069702 107.6862793 C75.10506616 108.45673899 74.3394353 109.22719868 73.55060351 110.02100563 C70.9928514 112.5899938 68.42110298 115.14448306 65.84912109 117.69921875 C64.00859012 119.54189634 62.16892558 121.38543971 60.33006287 123.2297821 C55.85974519 127.71015641 51.37886365 132.17981848 46.89425801 136.64588636 C41.67319437 141.84614406 36.4626392 147.05687848 31.25245602 152.2680335 C21.96004511 161.56144446 12.65802186 170.84517409 3.35058594 180.12353516 C-5.68566244 189.13157038 -14.7148372 198.14661856 -23.73632812 207.16943359 C-24.2927146 207.72589998 -24.84910107 208.28236636 -25.42234774 208.85569537 C-26.25547311 209.6889418 -26.25547311 209.6889418 -27.10542929 210.53902149 C-37.37567347 220.81064374 -47.65247574 231.07568209 -57.93236507 241.33765084 C-61.5703076 244.96955313 -65.20628751 248.60341332 -68.84166336 252.23788452 C-73.72694897 257.12166689 -78.61777531 261.99984311 -83.51238823 266.87427711 C-85.31290508 268.66892915 -87.11170969 270.46530081 -88.90872002 272.26346397 C-91.35111258 274.70683078 -93.79951746 277.14400265 -96.24966431 279.57958984 C-97.32824406 280.6628154 -97.32824406 280.6628154 -98.42861331 281.76792431 C-99.08152358 282.41438569 -99.73443385 283.06084707 -100.40712929 283.72689819 C-100.97226317 284.29062323 -101.53739705 284.85434826 -102.11965621 285.43515587 C-103.5625 286.625 -103.5625 286.625 -105.5625 286.625 C-105.5625 287.285 -105.5625 287.945 -105.5625 288.625 C-106.2225 288.625 -106.8825 288.625 -107.5625 288.625 C-107.5625 289.285 -107.5625 289.945 -107.5625 290.625 C-112.52323422 291.94786246 -117.47361512 291.71393197 -122.5625 291.625 C-122.5625 291.295 -122.5625 290.965 -122.5625 290.625 C-121.52802734 290.51285156 -121.52802734 290.51285156 -120.47265625 290.3984375 C-119.06306641 290.20121094 -119.06306641 290.20121094 -117.625 290 C-116.25021484 289.82597656 -116.25021484 289.82597656 -114.84765625 289.6484375 C-106.69649335 287.10907403 -100.48577202 280.98723744 -94.59770203 275.04115295 C-93.84962794 274.29775884 -93.10155385 273.55436472 -92.33081084 272.78844351 C-89.84579651 270.31531953 -87.37155437 267.8317028 -84.8972168 265.34790039 C-83.10991879 263.56467064 -81.32198389 261.78207905 -79.53346252 260.00007629 C-75.19408518 255.67293104 -70.86175103 251.33884475 -66.53284802 247.00122387 C-63.01363123 243.47521507 -59.49147671 239.95216583 -55.96723366 236.43118095 C-55.46449221 235.92889921 -54.96175077 235.42661746 -54.44377473 234.90911506 C-53.42228414 233.8885837 -52.40078685 232.86805904 -51.37928293 231.84754103 C-41.81691497 222.29371344 -32.26373896 212.73073718 -22.71371535 203.16457235 C-14.52585124 194.9632981 -6.33014222 186.7699325 1.87133789 178.58227539 C11.40779659 169.0618823 20.93935576 159.53662748 30.4631812 150.00359529 C31.47921869 148.9866022 32.49526243 147.96961535 33.51131248 146.95263481 C34.01116282 146.45232165 34.51101315 145.9520085 35.02601046 145.43653433 C38.5425813 141.91737716 42.06261306 138.40170497 45.58400917 134.88737679 C50.3246797 130.15601306 55.05730014 125.41673809 59.78464699 120.6720562 C61.52030856 118.93242887 63.25852631 117.19534758 64.99947739 115.46101379 C67.37586732 113.09282505 69.74281825 110.71558283 72.10762024 108.33583069 C72.79798239 107.65216071 73.48834453 106.96849073 74.19962674 106.26410347 C79.81041637 100.58433973 83.98503354 95.08699261 84.52734375 86.8828125 C83.99567848 73.52183298 69.14160745 63.15093195 60.40234375 54.38671875 C59.7322333 53.71378092 59.06212284 53.04084309 58.37170601 52.3475132 C54.83375027 48.79465304 51.29299622 45.24461111 47.74975586 41.69702148 C44.09921997 38.04097658 40.45807365 34.37572616 36.81899166 30.70828533 C34.00757276 27.87823514 31.18946089 25.05492257 28.36947823 22.23340797 C27.02381626 20.88472618 25.68064761 19.53355172 24.34007072 18.17981529 C22.46672999 16.28938486 20.58411394 14.40868439 18.69897461 12.5300293 C18.15179779 11.9736377 17.60462097 11.41724609 17.04086304 10.84399414 C12.15711075 6.01256557 7.55918662 3.1967762 0.5 3.1875 C-0.47839844 3.16816406 -1.45679688 3.14882813 -2.46484375 3.12890625 C-8.86495993 4.15389333 -13.42659913 8.11406423 -17.88401794 12.58575439 C-18.3718581 13.07103127 -18.85969825 13.55630815 -19.36232144 14.05629039 C-20.97848072 15.66754856 -22.58375258 17.28921561 -24.18920898 18.91113281 C-25.35214345 20.07491434 -26.51574059 21.23803399 -27.6799469 22.40054321 C-30.82667965 25.5464177 -33.96409763 28.70143427 -37.09989047 31.85820866 C-40.38298686 35.16009991 -43.67462051 38.45345816 -46.96534729 41.7477417 C-53.1901957 47.9819023 -59.40735922 54.2236685 -65.6217795 60.46822238 C-72.69929848 67.57931101 -79.78537079 74.68185015 -86.87216461 81.78369379 C-101.44512847 96.38798798 -116.00734961 111.00295362 -130.5625 125.625 C-131.2225 125.295 -131.8825 124.965 -132.5625 124.625 C-116.95704665 108.97288788 -101.34591675 93.32645802 -85.72795296 77.68682861 C-78.47688656 70.42543647 -71.22771062 63.16217546 -63.98291016 55.89453125 C-57.67054799 49.56227488 -51.35471348 43.2335065 -45.03463161 36.90895462 C-41.68632806 33.55803694 -38.33982539 30.20536314 -34.99747086 26.84851074 C-31.85490314 23.69242176 -28.70773269 20.54099894 -25.55688858 17.39317322 C-24.39815448 16.2338865 -23.24114795 15.0728702 -22.08596039 13.91004944 C-20.5147466 12.32895971 -18.93757081 10.75407488 -17.3586731 9.18066406 C-16.03405658 7.85328217 -16.03405658 7.85328217 -14.68268013 6.49908447 C-12.5625 4.625 -12.5625 4.625 -10.5625 4.625 C-10.5625 3.965 -10.5625 3.305 -10.5625 2.625 C-7.0694259 0.51370706 -4.05084077 0.171991 0 0 Z " fill="#DD8532" transform="translate(553.5625,262.375)"/>
<path d="M0 0 C1.155 -0.0825 2.31 -0.165 3.5 -0.25 C4.1496875 -0.29640625 4.799375 -0.3428125 5.46875 -0.390625 C12.74741872 0.73262635 18.00970255 5.4239345 23.0160675 10.48794556 C23.67415458 11.13767598 24.33224166 11.78740639 25.01027077 12.45682561 C27.19909919 14.62279008 29.37349281 16.80267091 31.5480957 18.98291016 C33.11994085 20.54441729 34.69260959 22.10509575 36.26603699 23.66500854 C40.5273733 27.89533922 44.77578167 32.138428 49.02101159 36.38491488 C52.5689297 39.93200168 56.12253809 43.47336152 59.67596978 47.01492345 C68.53846149 55.848493 77.38794044 64.69499256 86.23199698 73.54700808 C93.90329966 81.22429347 101.59263824 88.88322363 109.29049096 96.53387935 C117.20623609 104.40147108 125.10852602 112.28240131 132.99782437 120.17652357 C137.4226039 124.60362454 141.85253261 129.0252463 146.29598427 133.43361282 C150.47391994 137.57958684 154.63462543 141.74211463 158.78279305 145.91786575 C160.30574245 147.44526876 161.83465989 148.96674841 163.36998367 150.48171234 C165.46957647 152.5553421 167.54629917 154.64954396 169.61885071 156.75015259 C170.22720695 157.34084742 170.8355632 157.93154226 171.46235448 158.54013693 C175.86258466 163.06963679 177.99962894 167.74591977 179 174 C178.41894068 186.71705179 168.91656968 194.37125138 160.3515625 202.84375 C159.32836728 203.86320676 158.30561887 204.88311215 157.28329468 205.90344238 C154.61467304 208.56449306 151.94009746 211.21947768 149.26416016 213.87316895 C146.52529087 216.59143756 143.79220108 219.3155041 141.05859375 222.0390625 C135.71131274 227.36500922 130.35771716 232.68454959 125 238 C124.34 237.67 123.68 237.34 123 237 C123.60943451 236.3927861 124.21886902 235.7855722 124.84677124 235.15995789 C130.5879469 229.43881417 136.32671762 223.71527137 142.06279564 217.98901653 C145.01189381 215.0451383 147.96191558 212.10219811 150.9140625 209.16137695 C153.76267534 206.32362449 156.60884289 203.48344065 159.45332718 200.64155006 C160.5393146 199.5574112 161.62618221 198.4741533 162.71393967 197.39179039 C164.23659581 195.87638642 165.75610055 194.35788862 167.27490234 192.83862305 C168.14094086 191.97480515 169.00697937 191.11098724 169.89926147 190.22099304 C173.02714049 186.91406195 174.28086159 184.43468687 175 180 C175.66 180 176.32 180 177 180 C176.2812193 172.95792295 176.2812193 172.95792295 175 166 C174.34 166 173.68 166 173 166 C172.57790725 165.29425653 172.1558145 164.58851307 171.72093105 163.86138344 C169.70797265 160.51444758 167.21931007 157.94491196 164.46510315 155.21786499 C163.90591546 154.65626289 163.34672778 154.09466079 162.77059501 153.51604044 C160.90069386 151.64051572 159.02374685 149.77220841 157.14672852 147.90380859 C155.80261716 146.55862403 154.45893894 145.21300655 153.11566162 143.86698914 C149.4694306 140.21591309 145.81698362 136.5711142 142.16325879 132.92753935 C138.34081816 129.11388477 134.52365305 125.29495656 130.70579529 121.47671509 C124.29416619 115.06602237 117.87867675 108.65921367 111.46069336 102.25488281 C104.03935831 94.84927633 96.62326581 87.43845322 89.21015793 80.02461183 C82.07975001 72.89359364 74.9464886 65.76543737 67.81162834 58.63887405 C64.77465709 55.60543423 61.73853723 52.57114599 58.70306587 49.53620529 C55.12924742 45.96339111 51.55289022 42.39313746 47.97454834 38.8248539 C46.66112705 37.5143542 45.34855057 36.20300718 44.03687859 34.89075661 C42.24751447 33.10090189 40.4551082 31.31415035 38.66188049 29.52816772 C38.1425183 29.00725693 37.62315611 28.48634614 37.08805567 27.94965017 C35.02405917 25.89942297 32.99769583 23.99831581 30.64613247 22.27948952 C30.10290875 21.85725798 29.55968504 21.43502644 29 21 C29 20.34 29 19.68 29 19 C28.34 19 27.68 19 27 19 C27 18.34 27 17.68 27 17 C26.34 17 25.68 17 25 17 C25 16.34 25 15.68 25 15 C24.34 15 23.68 15 23 15 C23 14.34 23 13.68 23 13 C22.34 13 21.68 13 21 13 C21 12.34 21 11.68 21 11 C20.195625 10.6596875 20.195625 10.6596875 19.375 10.3125 C17 9 17 9 14.4375 6.5625 C10.33325123 2.97791063 5.20419645 2.13899673 0 1 C0 0.67 0 0.34 0 0 Z " fill="#DB893D" transform="translate(488,174)"/>
<path d="M0 0 C0.99 0.495 0.99 0.495 2 1 C-21.40062175 24.44635604 -44.80647628 47.88747352 -68.21940707 71.32153773 C-70.98078206 74.08541426 -73.74211347 76.84933431 -76.50341797 79.61328125 C-77.05316647 80.16355437 -77.60291496 80.71382749 -78.16932251 81.28077555 C-87.08163386 90.20179985 -95.99040785 99.12634868 -104.89788948 108.05219507 C-114.03148707 117.204467 -123.16885268 126.35296417 -132.30975926 135.49793625 C-137.95432437 141.14525155 -143.59589657 146.79552348 -149.23372819 152.44956112 C-153.55030343 156.77791477 -157.87209899 161.10101659 -162.19591904 165.4221344 C-163.97387439 167.20064266 -165.75010008 168.98088189 -167.52451324 170.76292419 C-169.93649798 173.18477474 -172.35447487 175.60047446 -174.7741394 178.01464844 C-175.48424821 178.73058292 -176.19435701 179.44651741 -176.92598426 180.18414688 C-177.89337459 181.14556406 -177.89337459 181.14556406 -178.88030815 182.12640381 C-179.43849704 182.68535213 -179.99668592 183.24430046 -180.57178962 183.82018661 C-182 185 -182 185 -184 185 C-184 185.66 -184 186.32 -184 187 C-184.66 187 -185.32 187 -186 187 C-186 187.66 -186 188.32 -186 189 C-190.96073422 190.32286246 -195.91111512 190.08893197 -201 190 C-201 189.67 -201 189.34 -201 189 C-199.96552734 188.88785156 -199.96552734 188.88785156 -198.91015625 188.7734375 C-197.97042969 188.64195312 -197.03070313 188.51046875 -196.0625 188.375 C-195.14597656 188.25898437 -194.22945313 188.14296875 -193.28515625 188.0234375 C-185.13068745 185.48304413 -178.92725987 179.36381672 -173.04624939 173.40701294 C-172.29943659 172.66276341 -171.55262379 171.91851389 -170.7831803 171.15171134 C-168.30262879 168.67606959 -165.83289671 166.1899185 -163.36303711 163.70361328 C-161.57912577 161.91885506 -159.79455226 160.13475848 -158.0093689 158.35127258 C-154.17775569 154.52034076 -150.35076475 150.68488511 -146.52796745 146.84515762 C-141.00096083 141.29368938 -135.46561236 135.75059996 -129.92824358 130.20946978 C-120.94277783 121.21745074 -111.96402124 112.21876356 -102.98950195 103.21582031 C-94.27558602 94.47433468 -85.55850048 85.73602982 -76.8371582 77.00195312 C-76.29887651 76.46288327 -75.76059483 75.92381341 -75.20600157 75.3684081 C-72.50537213 72.66386333 -69.80468053 69.95938065 -67.10395801 67.25492883 C-44.72632563 44.84623552 -22.3597032 22.42658377 0 0 Z " fill="#D88B41" transform="translate(632,364)"/>
<path d="M0 0 C0.33 0.66 0.66 1.32 1 2 C0.54625 2.886875 0.0925 3.77375 -0.375 4.6875 C-3.52555504 11.10978527 -3.17007508 15.82334002 -1.08422852 22.43922424 C0.69189631 26.63414932 3.47326623 29.40364682 6.71875 32.52929688 C7.39711914 33.21029449 8.07548828 33.89129211 8.77441406 34.59292603 C10.9999387 36.81867065 13.24923296 39.01855982 15.5 41.21875 C17.05939925 42.76761859 18.61732039 44.31797663 20.17382812 45.86975098 C24.26056304 49.93551005 28.36830578 53.97939293 32.48046875 58.01940918 C35.84005114 61.32706779 39.18460219 64.64969766 42.52844238 67.97325897 C49.43053192 74.8330989 56.34223937 81.68335737 63.28125 88.50585938 C63.92030273 89.13751007 64.55935547 89.76916077 65.21777344 90.41995239 C65.80655273 90.99724091 66.39533203 91.57452942 67.00195312 92.16931152 C67.51149536 92.67068382 68.0210376 93.17205612 68.54602051 93.68862152 C70.17471116 95.2214545 70.17471116 95.2214545 73 97 C72.67 97.66 72.34 98.32 72 99 C66.65536866 95.16918507 61.82551376 91.1202293 57.18847656 86.46313477 C56.55975143 85.83952057 55.93102631 85.21590637 55.2832489 84.57339478 C53.23057074 82.53448529 51.18527184 80.48836729 49.140625 78.44140625 C47.70454302 77.00921673 46.26823966 75.57724916 44.83172607 74.14549255 C41.83281381 71.15401403 38.83776951 68.15872653 35.84521484 65.16088867 C32.01834746 61.32821482 28.18020454 57.50705738 24.338871 53.6888895 C21.37388759 50.73866225 18.41588592 47.78151114 15.45983124 44.82234001 C14.04764221 43.41066273 12.63310239 42.00133288 11.21613312 40.59445381 C9.23479519 38.62550618 7.26330263 36.64718099 5.29394531 34.66625977 C4.71309677 34.09305496 4.13224823 33.51985016 3.53379822 32.92927551 C-0.95576379 28.38148893 -4.62627675 23.92327594 -5.4609375 17.39453125 C-5.43257813 16.21246094 -5.40421875 15.03039062 -5.375 13.8125 C-5.36210937 12.62269531 -5.34921875 11.43289063 -5.3359375 10.20703125 C-5.02512455 7.23985178 -4.55301958 5.50346756 -3 3 C-2.34 3 -1.68 3 -1 3 C-0.67 2.01 -0.34 1.02 0 0 Z " fill="#DD8430" transform="translate(354,454)"/>
<path d="M0 0 C1.49824178 -0.11052603 2.99902089 -0.1867057 4.5 -0.25 C5.3353125 -0.29640625 6.170625 -0.3428125 7.03125 -0.390625 C16.93801493 0.9128967 23.22156332 8.66682225 29.8671875 15.40625 C30.99366319 16.53511381 32.12088353 17.66323499 33.24880981 18.79064941 C35.59987128 21.14482495 37.94410378 23.50552174 40.28320312 25.87158203 C43.27898504 28.90145912 46.28788229 31.91788558 49.30151176 34.93000031 C51.62524301 37.25427551 53.94372504 39.58372692 56.26047134 41.91496277 C57.36845611 43.02930058 58.47764634 44.14244116 59.58806992 45.25434875 C61.13656676 46.80718778 62.67829889 48.3664376 64.21826172 49.92773438 C65.09570038 50.81279663 65.97313904 51.69785889 66.87716675 52.60974121 C68.76382283 54.73407023 70.08581445 56.32248956 71 59 C70.67 59.99 70.34 60.98 70 62 C69.401875 61.071875 68.80375 60.14375 68.1875 59.1875 C66.22220454 56.11550825 66.22220454 56.11550825 64.25 54.25 C63.8375 53.8375 63.425 53.425 63 53 C63 52.34 63 51.68 63 51 C62.34 51 61.68 51 61 51 C61 50.34 61 49.68 61 49 C60.34 49 59.68 49 59 49 C59 48.34 59 47.68 59 47 C58.34 47 57.68 47 57 47 C57 46.34 57 45.68 57 45 C56.34 45 55.68 45 55 45 C55 44.34 55 43.68 55 43 C54.34 43 53.68 43 53 43 C53 42.34 53 41.68 53 41 C52.34 41 51.68 41 51 41 C49.75463867 39.73779297 49.75463867 39.73779297 48.23046875 37.8671875 C43.18131214 31.93269573 37.66246821 26.47642942 32.15600586 20.97070312 C30.30097597 19.11346223 28.45412582 17.24832796 26.60742188 15.3828125 C25.4223641 14.19482441 24.23683407 13.00730717 23.05078125 11.8203125 C22.50279373 11.26513947 21.95480621 10.70996643 21.39021301 10.13796997 C16.25124613 5.02954547 12.88110699 3.79940276 5.75 2.875 C4.48671875 2.70742188 3.2234375 2.53984375 1.921875 2.3671875 C0.95765625 2.24601562 -0.0065625 2.12484375 -1 2 C-0.67 1.34 -0.34 0.68 0 0 Z " fill="#DA8B41" transform="translate(344,32)"/>
<path d="M0 0 C0.33 0 0.66 0 1 0 C1.16575771 1.6422292 1.28006267 3.28965921 1.375 4.9375 C1.47941406 6.31228516 1.47941406 6.31228516 1.5859375 7.71484375 C-0.2754363 18.1509462 -10.62528667 25.97441096 -17.875 33.0625 C-19.05278257 34.22520358 -20.22987171 35.38861002 -21.40625 36.55273438 C-24.26290729 39.37665245 -27.12876615 42.19090717 -30 45 C-30.66 44.67 -31.32 44.34 -32 44 C-31.18732666 43.19780029 -30.37465332 42.39560059 -29.53735352 41.5690918 C-26.52627629 38.59418893 -23.52180178 35.61269303 -20.51928711 32.62915039 C-19.21834871 31.33827539 -17.91562171 30.04920036 -16.61108398 28.76196289 C-14.73729955 26.9124115 -12.87002274 25.05650249 -11.00390625 23.19921875 C-10.41847549 22.62411057 -9.83304474 22.04900238 -9.22987366 21.45646667 C-5.94317724 18.17155255 -5.94317724 18.17155255 -4 14 C-3.34 14 -2.68 14 -2 14 C-2.020625 13.030625 -2.04125 12.06125 -2.0625 11.0625 C-2 8 -2 8 -1 7 C-0.63239269 4.67182036 -0.29758419 2.3381615 0 0 Z " fill="#DD8839" transform="translate(415,95)"/>
<path d="M0 0 C1.155 -0.0825 2.31 -0.165 3.5 -0.25 C4.1496875 -0.29640625 4.799375 -0.3428125 5.46875 -0.390625 C14.21450525 0.95902859 19.65937297 7.16205 25.5 13.25 C26.32242188 14.09046875 27.14484375 14.9309375 27.9921875 15.796875 C30.00425325 17.85573297 32.00632172 19.92335815 34 22 C33.01 22.33 32.02 22.66 31 23 C30.34 21.68 29.68 20.36 29 19 C28.34 19 27.68 19 27 19 C27 18.34 27 17.68 27 17 C26.34 17 25.68 17 25 17 C25 16.34 25 15.68 25 15 C24.34 15 23.68 15 23 15 C23 14.34 23 13.68 23 13 C22.34 13 21.68 13 21 13 C21 12.34 21 11.68 21 11 C20.195625 10.6596875 20.195625 10.6596875 19.375 10.3125 C17 9 17 9 14.4375 6.5625 C10.33325123 2.97791063 5.20419645 2.13899673 0 1 C0 0.67 0 0.34 0 0 Z " fill="#DF8532" transform="translate(488,174)"/>
<path d="M0 0 C16.94554144 13.99849076 16.94554144 13.99849076 19 20 C18.67 20.99 18.34 21.98 18 23 C17.401875 22.071875 16.80375 21.14375 16.1875 20.1875 C14.22220454 17.11550825 14.22220454 17.11550825 12.25 15.25 C11.8375 14.8375 11.425 14.425 11 14 C11 13.34 11 12.68 11 12 C10.34 12 9.68 12 9 12 C9 11.34 9 10.68 9 10 C8.34 10 7.68 10 7 10 C7 9.34 7 8.68 7 8 C6.34 8 5.68 8 5 8 C5 7.34 5 6.68 5 6 C4.34 6 3.68 6 3 6 C3 5.34 3 4.68 3 4 C2.34 4 1.68 4 1 4 C1 3.34 1 2.68 1 2 C0.34 1.67 -0.32 1.34 -1 1 C-0.67 0.67 -0.34 0.34 0 0 Z " fill="#DD8430" transform="translate(396,71)"/>
<path d="M0 0 C0.99 0.33 1.98 0.66 3 1 C-1.40826001 4.41640151 -5.27088284 6.30047817 -11 6 C-14.42282401 5.22741972 -17.70299169 4.19584113 -21 3 C-21 2.67 -21 2.34 -21 2 C-15.45291384 1.7080481 -10.38027025 2.80911014 -5 4 C-5 3.34 -5 2.68 -5 2 C-3.35 2 -1.7 2 0 2 C0 1.34 0 0.68 0 0 Z " fill="#DD8636" transform="translate(359,661)"/>
<path d="M0 0 C7.24539726 -0.53449652 11.72912263 0.28392452 18 4 C13.77528056 5.30415252 11.2259864 4.26779592 7 3 C4.3360293 2.5707788 1.68524013 2.28265686 -1 2 C-0.67 1.34 -0.34 0.68 0 0 Z " fill="#DF8838" transform="translate(344,32)"/>
</svg>
